<svg xmlns="http://www.w3.org/2000/svg" width="76.656" height="13.873" viewBox="0 0 76.656 13.873"><g transform="translate(-204.344 -1844.469)"><g transform="translate(204.344 1845.022)"><path d="M32.465-1160.872c-.064.192-.172.521-.242.732l-.4,1.209c-.15.454-.391,1.187-.536,1.627l-.264.8H28.513c-1.382,0-2.513,0-2.513.007s.181.139.4.3l2.011,1.442c.885.635,1.618,1.163,1.628,1.172s.059-.1-.448,1.434c-.2.607-.367,1.116-.669,2.035l-.343,1.042a1.8,1.8,0,0,0-.064.217c.007.006-.251.192,2.037-1.451l1.995-1.431.035-.024.812.584c2.607,1.873,3.253,2.335,3.256,2.331s-.049-.163-.113-.359-.23-.7-.369-1.117l-.864-2.632c-.155-.469-.2-.6-.2-.613s.911-.664,2.025-1.463,2.025-1.458,2.025-1.463-.969-.01-2.512-.012l-2.511,0-.175-.533c-.1-.293-.29-.88-.429-1.305l-.6-1.817c-.189-.574-.346-1.047-.351-1.052A3.151,3.151,0,0,0,32.465-1160.872Z" transform="translate(-26 1161.213)" fill="#ff6e14"/></g><g transform="translate(219.863 1845.022)"><path d="M32.465-1160.872c-.064.192-.172.521-.242.732l-.4,1.209c-.15.454-.391,1.187-.536,1.627l-.264.8H28.513c-1.382,0-2.513,0-2.513.007s.181.139.4.3l2.011,1.442c.885.635,1.618,1.163,1.628,1.172s.059-.1-.448,1.434c-.2.607-.367,1.116-.669,2.035l-.343,1.042a1.8,1.8,0,0,0-.064.217c.007.006-.251.192,2.037-1.451l1.995-1.431.035-.024.812.584c2.607,1.873,3.253,2.335,3.256,2.331s-.049-.163-.113-.359-.23-.7-.369-1.117l-.864-2.632c-.155-.469-.2-.6-.2-.613s.911-.664,2.025-1.463,2.025-1.458,2.025-1.463-.969-.01-2.512-.012l-2.511,0-.175-.533c-.1-.293-.29-.88-.429-1.305l-.6-1.817c-.189-.574-.346-1.047-.351-1.052A3.151,3.151,0,0,0,32.465-1160.872Z" transform="translate(-26 1161.213)" fill="#ff6e14"/></g><g transform="translate(235.383 1845.022)"><path d="M32.465-1160.872c-.064.192-.172.521-.242.732l-.4,1.209c-.15.454-.391,1.187-.536,1.627l-.264.8H28.513c-1.382,0-2.513,0-2.513.007s.181.139.4.3l2.011,1.442c.885.635,1.618,1.163,1.628,1.172s.059-.1-.448,1.434c-.2.607-.367,1.116-.669,2.035l-.343,1.042a1.8,1.8,0,0,0-.064.217c.007.006-.251.192,2.037-1.451l1.995-1.431.035-.024.812.584c2.607,1.873,3.253,2.335,3.256,2.331s-.049-.163-.113-.359-.23-.7-.369-1.117l-.864-2.632c-.155-.469-.2-.6-.2-.613s.911-.664,2.025-1.463,2.025-1.458,2.025-1.463-.969-.01-2.512-.012l-2.511,0-.175-.533c-.1-.293-.29-.88-.429-1.305l-.6-1.817c-.189-.574-.346-1.047-.351-1.052A3.151,3.151,0,0,0,32.465-1160.872Z" transform="translate(-26 1161.213)" fill="#ff6e14"/></g><g transform="translate(251.097 1845.022)"><path d="M32.465-1160.872c-.064.192-.172.521-.242.732l-.4,1.209c-.15.454-.391,1.187-.536,1.627l-.264.8H28.513c-1.382,0-2.513,0-2.513.007s.181.139.4.3l2.011,1.442c.885.635,1.618,1.163,1.628,1.172s.059-.1-.448,1.434c-.2.607-.367,1.116-.669,2.035l-.343,1.042a1.8,1.8,0,0,0-.064.217c.007.006-.251.192,2.037-1.451l1.995-1.431.035-.024.812.584c2.607,1.873,3.253,2.335,3.256,2.331s-.049-.163-.113-.359-.23-.7-.369-1.117l-.864-2.632c-.155-.469-.2-.6-.2-.613s.911-.664,2.025-1.463,2.025-1.458,2.025-1.463-.969-.01-2.512-.012l-2.511,0-.175-.533c-.1-.293-.29-.88-.429-1.305l-.6-1.817c-.189-.574-.346-1.047-.351-1.052A3.151,3.151,0,0,0,32.465-1160.872Z" transform="translate(-26 1161.213)" fill="#ff6e14"/></g><g transform="translate(266.491 1844.469)"><path d="M11.765,25.109,7.258,21.369,2.75,25.109l2.164-5.443L0,16.535l5.809.375,1.449-5.674L8.706,16.91l5.8-.375L9.6,19.665ZM7.258,20.265l2.488,2.064-1.193-3L11.264,17.6,8.057,17.8l-.8-3.132-.8,3.132L3.249,17.6l2.714,1.729-1.193,3Z" transform="translate(0 -11.236)" fill="#ff6e14"/></g></g></svg>