<svg xmlns="http://www.w3.org/2000/svg" width="75.913" height="12.369" viewBox="0 0 75.913 12.369"><g transform="translate(-179.099 -1591.022)"><g transform="translate(179.099 1591.022)"><path d="M32.465-1160.872c-.064.192-.172.521-.242.732l-.4,1.209c-.15.454-.391,1.187-.536,1.627l-.264.8H28.513c-1.382,0-2.513,0-2.513.007s.181.139.4.3l2.011,1.442c.885.635,1.618,1.163,1.628,1.172s.059-.1-.448,1.434c-.2.607-.367,1.116-.669,2.035l-.343,1.042a1.8,1.8,0,0,0-.064.217c.007.006-.251.192,2.037-1.451l1.995-1.431.035-.024.812.584c2.607,1.873,3.253,2.335,3.256,2.331s-.049-.163-.113-.359-.23-.7-.369-1.117l-.864-2.632c-.155-.469-.2-.6-.2-.613s.911-.664,2.025-1.463,2.025-1.458,2.025-1.463-.969-.01-2.512-.012l-2.511,0-.175-.533c-.1-.293-.29-.88-.429-1.305l-.6-1.817c-.189-.574-.346-1.047-.351-1.052A3.151,3.151,0,0,0,32.465-1160.872Z" transform="translate(-26 1161.213)" fill="#ff6e14"/></g><g transform="translate(194.618 1591.022)"><path d="M32.465-1160.872c-.064.192-.172.521-.242.732l-.4,1.209c-.15.454-.391,1.187-.536,1.627l-.264.8H28.513c-1.382,0-2.513,0-2.513.007s.181.139.4.3l2.011,1.442c.885.635,1.618,1.163,1.628,1.172s.059-.1-.448,1.434c-.2.607-.367,1.116-.669,2.035l-.343,1.042a1.8,1.8,0,0,0-.064.217c.007.006-.251.192,2.037-1.451l1.995-1.431.035-.024.812.584c2.607,1.873,3.253,2.335,3.256,2.331s-.049-.163-.113-.359-.23-.7-.369-1.117l-.864-2.632c-.155-.469-.2-.6-.2-.613s.911-.664,2.025-1.463,2.025-1.458,2.025-1.463-.969-.01-2.512-.012l-2.511,0-.175-.533c-.1-.293-.29-.88-.429-1.305l-.6-1.817c-.189-.574-.346-1.047-.351-1.052A3.151,3.151,0,0,0,32.465-1160.872Z" transform="translate(-26 1161.213)" fill="#ff6e14"/></g><g transform="translate(210.138 1591.022)"><path d="M32.465-1160.872c-.064.192-.172.521-.242.732l-.4,1.209c-.15.454-.391,1.187-.536,1.627l-.264.8H28.513c-1.382,0-2.513,0-2.513.007s.181.139.4.3l2.011,1.442c.885.635,1.618,1.163,1.628,1.172s.059-.1-.448,1.434c-.2.607-.367,1.116-.669,2.035l-.343,1.042a1.8,1.8,0,0,0-.064.217c.007.006-.251.192,2.037-1.451l1.995-1.431.035-.024.812.584c2.607,1.873,3.253,2.335,3.256,2.331s-.049-.163-.113-.359-.23-.7-.369-1.117l-.864-2.632c-.155-.469-.2-.6-.2-.613s.911-.664,2.025-1.463,2.025-1.458,2.025-1.463-.969-.01-2.512-.012l-2.511,0-.175-.533c-.1-.293-.29-.88-.429-1.305l-.6-1.817c-.189-.574-.346-1.047-.351-1.052A3.151,3.151,0,0,0,32.465-1160.872Z" transform="translate(-26 1161.213)" fill="#ff6e14"/></g><g transform="translate(225.852 1591.022)"><path d="M32.465-1160.872c-.064.192-.172.521-.242.732l-.4,1.209c-.15.454-.391,1.187-.536,1.627l-.264.8H28.513c-1.382,0-2.513,0-2.513.007s.181.139.4.3l2.011,1.442c.885.635,1.618,1.163,1.628,1.172s.059-.1-.448,1.434c-.2.607-.367,1.116-.669,2.035l-.343,1.042a1.8,1.8,0,0,0-.064.217c.007.006-.251.192,2.037-1.451l1.995-1.431.035-.024.812.584c2.607,1.873,3.253,2.335,3.256,2.331s-.049-.163-.113-.359-.23-.7-.369-1.117l-.864-2.632c-.155-.469-.2-.6-.2-.613s.911-.664,2.025-1.463,2.025-1.458,2.025-1.463-.969-.01-2.512-.012l-2.511,0-.175-.533c-.1-.293-.29-.88-.429-1.305l-.6-1.817c-.189-.574-.346-1.047-.351-1.052A3.151,3.151,0,0,0,32.465-1160.872Z" transform="translate(-26 1161.213)" fill="#ff6e14"/></g><g transform="translate(241.852 1591.022)"><path d="M32.465-1160.872c-.064.192-.172.521-.242.732l-.4,1.209c-.15.454-.391,1.187-.536,1.627l-.264.8H28.513c-1.382,0-2.513,0-2.513.007s.181.139.4.3l2.011,1.442c.885.635,1.618,1.163,1.628,1.172s.059-.1-.448,1.434c-.2.607-.367,1.116-.669,2.035l-.343,1.042a1.8,1.8,0,0,0-.064.217c.007.006-.251.192,2.037-1.451l1.995-1.431.035-.024.812.584c2.607,1.873,3.253,2.335,3.256,2.331s-.049-.163-.113-.359-.23-.7-.369-1.117l-.864-2.632c-.155-.469-.2-.6-.2-.613s.911-.664,2.025-1.463,2.025-1.458,2.025-1.463-.969-.01-2.512-.012l-2.511,0-.175-.533c-.1-.293-.29-.88-.429-1.305l-.6-1.817c-.189-.574-.346-1.047-.351-1.052A3.151,3.151,0,0,0,32.465-1160.872Z" transform="translate(-26 1161.213)" fill="#ff6e14"/></g></g></svg>