<svg xmlns="http://www.w3.org/2000/svg" width="15.802" height="17.98" viewBox="0 0 15.802 17.98"><path d="M44.694,1.549V0H43.641V1.549H42.587V0H41.534V1.549H40.48V0H39.427V1.549H38.373V0H37.32V1.549H36.266V0H35.213V1.549H34.159V0H33.106V1.549H31V17.98H46.8V1.549Zm1.053,15.378h-13.7V2.6h1.053v1.12h1.054V2.6h1.053v1.12h1.053V2.6H37.32v1.12h1.053V2.6h1.053v1.12H40.48V2.6h1.053v1.12h1.054V2.6h1.053v1.12h1.053V2.6h1.053Z" transform="translate(-30.999)"/><path d="M151,154.734h6.426v1.053H151Z" transform="translate(-146.785 -149.3)"/><path d="M151,214.734h8.428v1.053H151Z" transform="translate(-146.785 -207.193)"/><path d="M151,274.734h7.036v1.054H151Z" transform="translate(-146.785 -265.086)"/><path d="M151,334.734h8.428v1.054H151Z" transform="translate(-146.785 -322.979)"/><path d="M151,394.734h7.036v1.054H151Z" transform="translate(-146.785 -380.872)"/><path d="M91,154.734h1.054v1.053H91Z" transform="translate(-88.892 -149.3)"/><path d="M91,214.734h1.054v1.053H91Z" transform="translate(-88.892 -207.193)"/><path d="M91,274.734h1.054v1.054H91Z" transform="translate(-88.892 -265.086)"/><path d="M91,334.734h1.054v1.054H91Z" transform="translate(-88.892 -322.979)"/><path d="M91,394.735h1.054v1.054H91Z" transform="translate(-88.892 -380.873)"/></svg>