<?xml version="1.0" encoding="iso-8859-1"?>
<!-- Generator: Adobe Illustrator 19.0.0, SVG Export Plug-In . SVG Version: 6.00 Build 0)  -->
<svg version="1.1" id="Layer_1" xmlns="http://www.w3.org/2000/svg" xmlns:xlink="http://www.w3.org/1999/xlink" x="0px" y="0px"
	 viewBox="0 0 511.458 511.458" style="enable-background:new 0 0 511.458 511.458;" xml:space="preserve">
<g>
	<g>
		<g>
			<path d="M153.322,285.629c0,14.1,11.5,25.6,25.6,25.6c14.1,0,25.6-11.5,25.6-25.6c0-14.1-11.5-25.6-25.6-25.6
				C164.822,260.029,153.322,271.529,153.322,285.629z M195.922,285.629c0.1,4.7-3.7,8.5-8.5,8.5h-17c-4.7,0-8.5-3.8-8.5-8.5
				s3.8-8.5,8.5-8.5h17C192.122,277.129,195.922,280.929,195.922,285.629z"/>
			<path d="M85.022,157.629h-41.3l-40.6,235.5c-2.7,16-3.7,31.8-2.8,47.2c1,16.6,2.8,29.4,5.7,38.7l5.8-4.1
				c0.1-0.2,73.2-66.9,73.2-308.8V157.629z"/>
			<path d="M407.422,174.629v-2.2c0-2.1-0.1-4.2-0.1-6.3l-0.5-8.5c-11.2-57.1-52.2-145.1-142.6-145.1s-131.4,88-142.6,145.1h-19.5
				v8.5c0,251.4-76.5,319.5-79.8,322.2l-8.2,5.9c3.2,3.1,6.9,4.7,11.2,4.7h460.8c4.6,0,8.5-1.7,11.8-5.3l-8.8-5.3
				C485.922,485.629,409.122,418.929,407.422,174.629z M221.522,285.529c0.1,23.6-19.1,42.7-42.6,42.7s-42.7-19.1-42.7-42.7
				c0-20.6,14.7-37.8,34.1-41.8v-35h-6.9c-10.3,0-18.7-8.4-18.7-18.7v-15.5h17.1v15.5c0,0.9,0.7,1.6,1.6,1.6h31
				c0.9,0,1.6-0.7,1.6-1.6v-32.5h-21.6c3-11.7,7.8-26.2,15-40.4c17.9-35.4,43.1-53.4,74.9-53.4s57,18,74.9,53.4
				c7.2,14.3,11.9,28.7,15,40.4h-141.2v32.5c0,10.3-8.4,18.7-18.7,18.7h-6.9v35C206.822,247.729,221.522,264.929,221.522,285.529z"
				/>
			<path d="M508.322,393.129l-40.6-235.6h-42.3v8.5c0,233.8,68.4,303.1,74.4,308.8l5.8,3.5c2.8-9.3,4.6-21.9,5.5-38.2
				C512.022,424.929,511.122,409.129,508.322,393.129z"/>
		</g>
	</g>
</g>
<g>
</g>
<g>
</g>
<g>
</g>
<g>
</g>
<g>
</g>
<g>
</g>
<g>
</g>
<g>
</g>
<g>
</g>
<g>
</g>
<g>
</g>
<g>
</g>
<g>
</g>
<g>
</g>
<g>
</g>
</svg>
