<svg xmlns="http://www.w3.org/2000/svg" width="30.159" height="30.159" viewBox="0 0 30.159 30.159"><path d="M25.741,0H4.418A4.423,4.423,0,0,0,0,4.418V25.741a4.423,4.423,0,0,0,4.418,4.418H25.741a4.423,4.423,0,0,0,4.418-4.418V4.418A4.423,4.423,0,0,0,25.741,0Zm-10.6,22.973a7.952,7.952,0,1,1,7.952-7.952A7.961,7.961,0,0,1,15.138,22.973ZM23.974,8.836a2.651,2.651,0,1,1,2.651-2.651A2.654,2.654,0,0,1,23.974,8.836Zm0,0" fill="#00b0e2"/><path d="M392.881,90a.881.881,0,1,0,.881.881A.881.881,0,0,0,392.881,90Zm0,0" transform="translate(-368.905 -84.698)" fill="#00b0e2"/><path d="M158.167,150a6.167,6.167,0,1,0,6.167,6.167A6.174,6.174,0,0,0,158.167,150Zm0,0" transform="translate(-143.028 -141.146)" fill="#00b0e2"/></svg>