<?xml version="1.0" encoding="utf-8"?>
<!-- Generator: Adobe Illustrator 15.0.0, SVG Export Plug-In . SVG Version: 6.00 Build 0)  -->
<!DOCTYPE svg PUBLIC "-//W3C//DTD SVG 1.1//EN" "http://www.w3.org/Graphics/SVG/1.1/DTD/svg11.dtd">
<svg version="1.1" id="Calque_1" xmlns="http://www.w3.org/2000/svg" xmlns:xlink="http://www.w3.org/1999/xlink" x="0px" y="0px"
	 width="233.9px" height="233.9px" viewBox="0 0 233.9 233.9" enable-background="new 0 0 233.9 233.9" xml:space="preserve">
<g>
	<defs>
		<rect id="SVGID_1_" width="233.9" height="233.9"/>
	</defs>
	<clipPath id="SVGID_2_">
		<use xlink:href="#SVGID_1_"  overflow="visible"/>
	</clipPath>
	<path clip-path="url(#SVGID_2_)" fill="#E50A70" d="M233.9,116.95c0,64.59-52.36,116.95-116.95,116.95S0,181.54,0,116.95
		C0,52.36,52.36,0,116.95,0S233.9,52.36,233.9,116.95"/>
</g>
<g>
	<defs>
		<rect id="SVGID_3_" width="233.9" height="233.9"/>
	</defs>
	<clipPath id="SVGID_4_">
		<use xlink:href="#SVGID_3_"  overflow="visible"/>
	</clipPath>
	<path clip-path="url(#SVGID_4_)" fill="#FFFFFF" d="M10.417,118.871v-0.131c0-12.995,10.376-23.639,24.653-23.639
		s24.521,10.514,24.521,23.508v0.131c0,12.995-10.376,23.639-24.653,23.639C20.662,142.378,10.417,131.865,10.417,118.871
		 M48.95,118.871v-0.131c0-7.836-5.816-14.366-14.012-14.366c-8.195,0-13.879,6.399-13.879,14.235v0.131
		c0,7.836,5.816,14.366,14.012,14.366S48.95,126.707,48.95,118.871"/>
	<path clip-path="url(#SVGID_4_)" fill="#FFFFFF" d="M63.688,122.004v-21.483c0-2.808,2.247-5.028,5.089-5.028
		c2.842,0,5.089,2.22,5.089,5.028v21.223c0,7.444,3.767,11.297,9.98,11.297s9.98-3.722,9.98-10.971v-21.549
		c0-2.808,2.247-5.028,5.089-5.028c2.842,0,5.089,2.22,5.089,5.028v21.157c0,13.844-7.865,20.635-20.291,20.635
		C71.289,142.313,63.688,135.457,63.688,122.004"/>
	<path clip-path="url(#SVGID_4_)" fill="#FFFFFF" d="M110.615,100.521c0-2.808,2.247-5.028,5.089-5.028
		c2.842,0,5.089,2.22,5.089,5.028v36.438c0,2.808-2.247,5.028-5.089,5.028c-2.842,0-5.089-2.221-5.089-5.028V100.521z"/>
	<path clip-path="url(#SVGID_4_)" fill="#FFFFFF" d="M126.08,118.871v-0.131c0-12.995,10.245-23.639,24.257-23.639
		c7.006,0,11.632,1.567,15.796,4.44c0.991,0.718,2.115,2.09,2.115,4.049c0,2.743-2.247,4.963-5.023,4.963
		c-1.454,0-2.379-0.522-3.106-1.045c-2.775-1.959-5.75-3.134-10.112-3.134c-7.402,0-13.284,6.464-13.284,14.235v0.131
		c0,8.358,5.816,14.497,14.012,14.497c3.701,0,7.006-0.914,9.583-2.743v-6.529h-6.873c-2.445,0-4.429-1.895-4.429-4.311
		s1.983-4.375,4.429-4.375h11.632c2.843,0,5.09,2.221,5.09,5.028v11.101c0,2.938-1.124,4.963-3.569,6.399
		c-3.768,2.286-9.253,4.571-16.193,4.571C135.994,142.378,126.08,132.387,126.08,118.871"/>
	<path clip-path="url(#SVGID_4_)" fill="#FFFFFF" d="M173.668,118.871v-0.131c0-12.995,10.376-23.639,24.652-23.639
		s24.521,10.514,24.521,23.508v0.131c0,12.995-10.376,23.639-24.652,23.639S173.668,131.865,173.668,118.871 M212.2,118.871v-0.131
		c0-7.836-5.816-14.366-14.012-14.366c-8.196,0-13.88,6.399-13.88,14.235v0.131c0,7.836,5.816,14.366,14.012,14.366
		S212.2,126.707,212.2,118.871"/>
	<path clip-path="url(#SVGID_4_)" fill="#FFFFFF" d="M121.851,83.35c0,3.396-2.754,6.15-6.15,6.15s-6.15-2.754-6.15-6.15
		s2.753-6.15,6.15-6.15S121.851,79.953,121.851,83.35"/>
</g>
</svg>
