<svg xmlns="http://www.w3.org/2000/svg" width="36.83" height="30.143" viewBox="0 0 36.83 30.143"><path d="M13.74,30.143a31.6,31.6,0,0,1-4.881-.387,22.907,22.907,0,0,1-6.677-2.43L0,26.133l2.363-.777c2.583-.849,4.154-1.376,6.1-2.2a8.113,8.113,0,0,1-4.17-4.832l-.55-1.668.451.069a8.2,8.2,0,0,1-1.026-1.266,7.77,7.77,0,0,1-1.318-4.619l.1-1.456.872.338a8.151,8.151,0,0,1-.79-2.214,8.425,8.425,0,0,1,.9-5.672L3.69.439l1.016,1.22A18.694,18.694,0,0,0,16.816,8.478a7.244,7.244,0,0,1,.44-3.848,7.205,7.205,0,0,1,2.929-3.359A8.8,8.8,0,0,1,25.292.017a8.156,8.156,0,0,1,5.014,2.068,16.831,16.831,0,0,0,1.835-.613c.4-.151.859-.323,1.43-.52l2.1-.725L34.3,4.146c.09-.008.184-.014.281-.018l2.247-.1L35.5,5.841c-.076.1-.1.133-.123.174-.107.161-.24.362-2.063,2.8a3.433,3.433,0,0,0-.642,2.236,21.146,21.146,0,0,1-1.154,8.5,15.05,15.05,0,0,1-4.04,5.985,17.844,17.844,0,0,1-8.458,4.089,26.038,26.038,0,0,1-5.283.518Zm0,0" transform="translate(0 0)" fill="#00b0e2"/></svg>